<svg width="20" height="20" viewBox="0 0 20 20" fill="none" xmlns="http://www.w3.org/2000/svg">
    <path
        d="M15.2803 7.28033C15.5732 6.98744 15.5732 6.51256 15.2803 6.21967C14.9874 5.92678 14.5126 5.92678 14.2197 6.21967L8.25 12.1893L5.78033 9.71967C5.48744 9.42678 5.01256 9.42678 4.71967 9.71967C4.42678 10.0126 4.42678 10.4874 4.71967 10.7803L7.71967 13.7803C8.01256 14.0732 8.48744 14.0732 8.78033 13.7803L15.2803 7.28033Z"
        fill="#098ED3" />
    <path fill-rule="evenodd" clip-rule="evenodd"
        d="M1.75 0C0.783501 0 0 0.783503 0 1.75V18.25C0 19.2165 0.783503 20 1.75 20H18.25C19.2165 20 20 19.2165 20 18.25V1.75C20 0.783501 19.2165 0 18.25 0H1.75ZM1.5 1.75C1.5 1.61193 1.61193 1.5 1.75 1.5H18.25C18.3881 1.5 18.5 1.61193 18.5 1.75V18.25C18.5 18.3881 18.3881 18.5 18.25 18.5H1.75C1.61193 18.5 1.5 18.3881 1.5 18.25V1.75Z"
        fill="#098ED3" />
</svg>