<svg width="32" height="32" viewBox="0 0 32 32" fill="none" xmlns="http://www.w3.org/2000/svg">
<g clip-path="url(#clip0)">
<path d="M16 18.75C17.5188 18.75 18.75 17.5188 18.75 16C18.75 14.4812 17.5188 13.25 16 13.25C14.4812 13.25 13.25 14.4812 13.25 16C13.25 17.5188 14.4812 18.75 16 18.75Z" stroke="#999999" stroke-width="2" stroke-linecap="round" stroke-linejoin="round"/>
<path d="M22.7834 18.75C22.6614 19.0264 22.625 19.3331 22.6789 19.6305C22.7328 19.9279 22.8746 20.2023 23.0859 20.4183L23.1409 20.4733C23.3114 20.6436 23.4466 20.8458 23.5389 21.0683C23.6311 21.2909 23.6786 21.5294 23.6786 21.7704C23.6786 22.0113 23.6311 22.2499 23.5389 22.4724C23.4466 22.695 23.3114 22.8972 23.1409 23.0675C22.9706 23.2379 22.7685 23.3731 22.5459 23.4654C22.3233 23.5577 22.0848 23.6051 21.8438 23.6051C21.6029 23.6051 21.3643 23.5577 21.1418 23.4654C20.9192 23.3731 20.717 23.2379 20.5467 23.0675L20.4917 23.0125C20.2757 22.8011 20.0013 22.6594 19.704 22.6055C19.4066 22.5515 19.0999 22.5879 18.8234 22.71C18.5523 22.8262 18.3211 23.0191 18.1582 23.265C17.9953 23.511 17.9079 23.7992 17.9067 24.0941V24.25C17.9067 24.7362 17.7136 25.2025 17.3698 25.5463C17.026 25.8901 16.5596 26.0833 16.0734 26.0833C15.5872 26.0833 15.1209 25.8901 14.7771 25.5463C14.4332 25.2025 14.2401 24.7362 14.2401 24.25V24.1675C14.233 23.864 14.1348 23.5698 13.9582 23.3229C13.7817 23.0761 13.5349 22.8881 13.2501 22.7833C12.9736 22.6613 12.6669 22.6249 12.3695 22.6788C12.0722 22.7327 11.7978 22.8745 11.5817 23.0858L11.5267 23.1408C11.3565 23.3112 11.1543 23.4465 10.9317 23.5387C10.7092 23.631 10.4706 23.6785 10.2297 23.6785C9.98874 23.6785 9.75017 23.631 9.52761 23.5387C9.30504 23.4465 9.10285 23.3112 8.93258 23.1408C8.76212 22.9705 8.6269 22.7683 8.53464 22.5458C8.44238 22.3232 8.39489 22.0846 8.39489 21.8437C8.39489 21.6028 8.44238 21.3642 8.53464 21.1417C8.6269 20.9191 8.76212 20.7169 8.93258 20.5466L8.98758 20.4916C9.19891 20.2756 9.34067 20.0012 9.39459 19.7038C9.4485 19.4065 9.4121 19.0998 9.29008 18.8233C9.17388 18.5522 8.98094 18.3209 8.73501 18.1581C8.48908 17.9952 8.20089 17.9078 7.90591 17.9066H7.75008C7.26385 17.9066 6.79754 17.7135 6.45372 17.3697C6.1099 17.0258 5.91675 16.5595 5.91675 16.0733C5.91675 15.5871 6.1099 15.1207 6.45372 14.7769C6.79754 14.4331 7.26385 14.24 7.75008 14.24H7.83258C8.13599 14.2329 8.43025 14.1347 8.67711 13.9581C8.92396 13.7815 9.11199 13.5348 9.21675 13.25C9.33877 12.9735 9.37517 12.6668 9.32125 12.3694C9.26733 12.0721 9.12557 11.7977 8.91425 11.5816L8.85925 11.5266C8.68879 11.3564 8.55357 11.1542 8.46131 10.9316C8.36904 10.709 8.32156 10.4705 8.32156 10.2295C8.32156 9.98861 8.36904 9.75005 8.46131 9.52748C8.55357 9.30492 8.68879 9.10273 8.85925 8.93246C9.02952 8.762 9.23171 8.62678 9.45427 8.53452C9.67684 8.44225 9.9154 8.39477 10.1563 8.39477C10.3973 8.39477 10.6358 8.44225 10.8584 8.53452C11.081 8.62678 11.2831 8.762 11.4534 8.93246L11.5084 8.98746C11.7245 9.19878 11.9988 9.34055 12.2962 9.39446C12.5936 9.44838 12.9003 9.41198 13.1767 9.28996H13.2501C13.5212 9.17376 13.7524 8.98082 13.9153 8.73489C14.0782 8.48895 14.1656 8.20076 14.1667 7.90579V7.74996C14.1667 7.26373 14.3599 6.79741 14.7037 6.4536C15.0475 6.10978 15.5139 5.91663 16.0001 5.91663C16.4863 5.91663 16.9526 6.10978 17.2964 6.4536C17.6403 6.79741 17.8334 7.26373 17.8334 7.74996V7.83246C17.8346 8.12743 17.922 8.41562 18.0849 8.66155C18.2477 8.90749 18.479 9.10043 18.7501 9.21663C19.0266 9.33865 19.3333 9.37505 19.6306 9.32113C19.928 9.26721 20.2024 9.12545 20.4184 8.91413L20.4734 8.85913C20.6437 8.68867 20.8459 8.55344 21.0684 8.46118C21.291 8.36892 21.5296 8.32143 21.7705 8.32143C22.0114 8.32143 22.25 8.36892 22.4726 8.46118C22.6951 8.55344 22.8973 8.68867 23.0676 8.85913C23.238 9.02939 23.3733 9.23159 23.4655 9.45415C23.5578 9.67671 23.6053 9.91528 23.6053 10.1562C23.6053 10.3971 23.5578 10.6357 23.4655 10.8583C23.3733 11.0808 23.238 11.283 23.0676 11.4533L23.0126 11.5083C22.8013 11.7243 22.6595 11.9987 22.6056 12.2961C22.5517 12.5934 22.5881 12.9001 22.7101 13.1766V13.25C22.8263 13.5211 23.0192 13.7523 23.2652 13.9152C23.5111 14.078 23.7993 14.1654 24.0942 14.1666H24.2501C24.7363 14.1666 25.2026 14.3598 25.5464 14.7036C25.8903 15.0474 26.0834 15.5137 26.0834 16C26.0834 16.4862 25.8903 16.9525 25.5464 17.2963C25.2026 17.6401 24.7363 17.8333 24.2501 17.8333H24.1676C23.8726 17.8345 23.5844 17.9219 23.3385 18.0847C23.0926 18.2476 22.8996 18.4788 22.7834 18.75V18.75Z" stroke="#999999" stroke-width="2" stroke-linecap="round" stroke-linejoin="round"/>
</g>
<defs>
<clipPath id="clip0">
<rect width="22" height="22" fill="white" transform="translate(5 5)"/>
</clipPath>
</defs>
</svg>
